<svg width="193" height="176" viewBox="0 0 193 176" fill="none" xmlns="http://www.w3.org/2000/svg">
<path d="M115.271 67.609L101.198 84.0782L145.732 128.612L190.265 84.0782L175.077 68.8895" stroke="white" stroke-width="3"/>
<path d="M135.759 72.7823L106.588 101.954L145.641 141.007L184.694 101.954L155.522 72.7823" stroke="white"/>
<rect x="114.727" y="121.132" width="43.7389" height="43.7389" transform="rotate(-45 114.727 121.132)" stroke="white" stroke-width="0.5"/>
<path d="M138.076 77.0023C138.076 77.0023 139.122 81.4631 140.583 83.9364C142.045 86.4097 145.515 89.8504 145.515 89.8504C145.515 89.8504 148.925 86.3453 150.306 83.9364C151.687 81.5275 152.633 77.3321 152.633 77.3321M172.185 80.6247L165.078 61.4758H163.321C162.913 62.6549 162.302 64.3468 161.487 66.5514C160.672 68.756 160.086 70.3453 159.729 71.3194L149.746 71.3239L140.624 71.3194H131.224C130.919 70.3453 130.358 68.756 129.543 66.5514C128.728 64.3468 128.117 62.6549 127.709 61.4758H125.952L118.844 80.6247C117.061 79.7019 116.17 78.2407 116.17 76.2412V61.4758C116.17 60.0915 117.469 58.1048 120.067 55.5157C122.665 52.9266 124.627 51.6321 125.952 51.6321C125.952 44.6595 126.779 37.8151 128.435 31.0988C130.091 24.3826 132.422 18.461 135.428 13.3341C138.433 8.20722 141.796 4.56712 145.515 2.41382C149.234 4.56712 152.597 8.20722 155.602 13.3341C158.608 18.461 160.939 24.3826 162.595 31.0988C164.251 37.8151 165.078 44.6595 165.078 51.6321C166.403 51.6321 168.364 52.9266 170.963 55.5157C173.561 58.1048 174.86 60.0915 174.86 61.4758V76.2412C174.86 78.2407 173.969 79.7019 172.185 80.6247ZM145.515 22.1011C142.815 22.1011 140.509 23.0624 138.599 24.985C136.688 26.9076 135.733 29.2275 135.733 31.9448C135.733 34.662 136.688 36.982 138.599 38.9046C140.509 40.8271 142.815 41.7884 145.515 41.7884C148.215 41.7884 150.52 40.8271 152.431 38.9046C154.341 36.982 155.297 34.662 155.297 31.9448C155.297 29.2275 154.341 26.9076 152.431 24.985C150.52 23.0624 148.215 22.1011 145.515 22.1011Z" stroke="white" stroke-width="3.5"/>
<path d="M138.076 77.0023C138.076 77.0023 139.122 81.4631 140.583 83.9364C142.045 86.4097 145.515 89.8504 145.515 89.8504C145.515 89.8504 148.925 86.3453 150.306 83.9364C151.687 81.5275 152.633 77.3321 152.633 77.3321M172.185 80.6247L165.078 61.4758H163.321C162.913 62.6549 162.302 64.3468 161.487 66.5514C160.672 68.756 160.086 70.3453 159.729 71.3194L149.746 71.3239L140.624 71.3194H131.224C130.919 70.3453 130.358 68.756 129.543 66.5514C128.728 64.3468 128.117 62.6549 127.709 61.4758H125.952L118.844 80.6247C117.061 79.7019 116.17 78.2407 116.17 76.2412V61.4758C116.17 60.0915 117.469 58.1048 120.067 55.5157C122.665 52.9266 124.627 51.6321 125.952 51.6321C125.952 44.6595 126.779 37.8151 128.435 31.0988C130.091 24.3826 132.422 18.461 135.428 13.3341C138.433 8.20722 141.796 4.56712 145.515 2.41382C149.234 4.56712 152.597 8.20722 155.602 13.3341C158.608 18.461 160.939 24.3826 162.595 31.0988C164.251 37.8151 165.078 44.6595 165.078 51.6321C166.403 51.6321 168.364 52.9266 170.963 55.5157C173.561 58.1048 174.86 60.0915 174.86 61.4758V76.2412C174.86 78.2407 173.969 79.7019 172.185 80.6247ZM145.515 22.1011C142.815 22.1011 140.509 23.0624 138.599 24.985C136.688 26.9076 135.733 29.2275 135.733 31.9448C135.733 34.662 136.688 36.982 138.599 38.9046C140.509 40.8271 142.815 41.7884 145.515 41.7884C148.215 41.7884 150.52 40.8271 152.431 38.9046C154.341 36.982 155.297 34.662 155.297 31.9448C155.297 29.2275 154.341 26.9076 152.431 24.985C150.52 23.0624 148.215 22.1011 145.515 22.1011Z" stroke="url(#paint0_linear_1_530)" stroke-width="3.5"/>
<line x1="2.18552e-08" y1="174.914" x2="10" y2="174.914" stroke="white"/>
<line x1="14" y1="174.914" x2="24" y2="174.914" stroke="white"/>
<line x1="28" y1="174.914" x2="38" y2="174.914" stroke="white"/>
<line x1="42" y1="174.914" x2="52" y2="174.914" stroke="white"/>
<line x1="56" y1="174.914" x2="66" y2="174.914" stroke="white"/>
<line x1="70" y1="174.914" x2="80" y2="174.914" stroke="white"/>
<line x1="84" y1="174.914" x2="94" y2="174.914" stroke="white"/>
<line x1="98" y1="174.914" x2="108" y2="174.914" stroke="white"/>
<line x1="112" y1="174.914" x2="122" y2="174.914" stroke="white"/>
<line x1="126" y1="174.914" x2="136" y2="174.914" stroke="white"/>
<line x1="140" y1="174.914" x2="146" y2="174.914" stroke="white"/>
<line x1="145.5" y1="151.414" x2="145.5" y2="161.414" stroke="white"/>
<line x1="145.5" y1="165.414" x2="145.5" y2="175.414" stroke="white"/>
<defs>
<linearGradient id="paint0_linear_1_530" x1="116.17" y1="46.1321" x2="174.86" y2="46.1321" gradientUnits="userSpaceOnUse">
<stop stop-color="#DA22FF"/>
<stop offset="1" stop-color="#9733EE"/>
</linearGradient>
</defs>
</svg>
