<svg width="373" height="366" viewBox="0 0 373 366" fill="none" xmlns="http://www.w3.org/2000/svg">
<path d="M78.9479 260.899L79.2887 261.265L79.2919 261.262L78.9479 260.899ZM361.169 0.686764C361.18 0.411364 360.964 0.179763 360.687 0.169363L356.181 0.000362264C355.904 -0.0100377 355.672 0.204763 355.661 0.480163C355.651 0.755463 355.867 0.987163 356.143 0.997463L360.149 1.14776L359.999 5.13636C359.989 5.41166 360.205 5.64336 360.481 5.65366C360.758 5.66406 360.991 5.44926 361.001 5.17386L361.169 0.686764ZM29.4376 307.313L65.6929 273.823L65.0113 273.092L28.7559 306.582L29.4376 307.313ZM65.6929 273.823L74.7568 265.451L74.0751 264.719L65.0113 273.092L65.6929 273.823ZM74.7568 265.451L79.2887 261.265L78.607 260.533L74.0751 264.719L74.7568 265.451ZM79.2919 261.262L88.064 253.018L87.376 252.292L78.6039 260.536L79.2919 261.262ZM317.595 41.1363L361.009 1.03376L360.328 0.302063L316.913 40.4046L317.595 41.1363ZM295.888 61.1875L317.595 41.1363L316.913 40.4046L295.206 60.4559L295.888 61.1875Z" fill="#DA22FF"/>
<path d="M353.608 42.6565C353.637 41.9682 353.099 41.3871 352.408 41.3585L341.144 40.8928C340.452 40.8642 339.869 41.399 339.841 42.0873C339.812 42.7756 340.349 43.3567 341.041 43.3853L351.054 43.7992L350.641 53.7693C350.613 54.4576 351.15 55.0387 351.841 55.0673C352.533 55.0959 353.116 54.5611 353.145 53.8728L353.608 42.6565ZM1.69717 365.731L58.2664 313.877L56.5692 312.041L0 363.895L1.69717 365.731ZM58.2664 313.877L72.4087 300.913L70.7115 299.078L56.5692 312.041L58.2664 313.877ZM72.4087 300.913L79.4798 294.431L77.7827 292.596L70.7115 299.078L72.4087 300.913ZM317.05 76.6642L353.205 43.5226L351.508 41.6869L315.353 74.8283L317.05 76.6642ZM79.4798 294.431L107.69 268.573L105.993 266.737L77.7827 292.596L79.4798 294.431Z" fill="#DA22FF"/>
<path d="M93.9774 63.543L251.083 17.2936L369.861 129.642L331.538 288.224L174.433 334.474L55.6543 222.125L93.9774 63.543Z" stroke="#DA22FF" stroke-width="5"/>
<path d="M244.896 44.3326L257.221 55.9898M82.6738 214.37L86.6505 197.914M179.692 63.5277L195.993 58.7289M212.294 53.9302L228.595 49.1314M294.193 90.9611L306.518 102.618M269.545 67.6469L281.869 79.3041M318.842 114.275L331.166 125.933M131.971 260.999L119.647 249.342M107.323 237.684L94.9981 226.027" stroke="#DA22FF"/>
<path d="M246.823 34.9072L352.404 134.773L318.335 275.749L178.686 316.859L73.106 216.994L107.174 76.0181L246.823 34.9072Z" stroke="#DA22FF"/>
<path d="M170.192 132.846L165.396 125.432L168.278 123.694L174.24 132.846H170.192ZM160.182 132.846V117.446H163.724V132.846H160.182ZM162.69 126.642V123.672H168.058V126.642H162.69ZM168.608 125.542L165.33 125.146L170.324 117.446H174.086L168.608 125.542ZM181.018 133.022C179.757 133.022 178.635 132.758 177.652 132.23C176.684 131.702 175.914 130.984 175.342 130.074C174.785 129.15 174.506 128.102 174.506 126.928C174.506 125.74 174.785 124.692 175.342 123.782C175.914 122.858 176.684 122.14 177.652 121.626C178.635 121.098 179.757 120.834 181.018 120.834C182.265 120.834 183.379 121.098 184.362 121.626C185.345 122.14 186.115 122.851 186.672 123.76C187.229 124.67 187.508 125.726 187.508 126.928C187.508 128.102 187.229 129.15 186.672 130.074C186.115 130.984 185.345 131.702 184.362 132.23C183.379 132.758 182.265 133.022 181.018 133.022ZM181.018 130.206C181.59 130.206 182.103 130.074 182.558 129.81C183.013 129.546 183.372 129.172 183.636 128.688C183.9 128.19 184.032 127.603 184.032 126.928C184.032 126.239 183.9 125.652 183.636 125.168C183.372 124.684 183.013 124.31 182.558 124.046C182.103 123.782 181.59 123.65 181.018 123.65C180.446 123.65 179.933 123.782 179.478 124.046C179.023 124.31 178.657 124.684 178.378 125.168C178.114 125.652 177.982 126.239 177.982 126.928C177.982 127.603 178.114 128.19 178.378 128.688C178.657 129.172 179.023 129.546 179.478 129.81C179.933 130.074 180.446 130.206 181.018 130.206ZM189.869 132.846V121.01H193.455L197.921 129.106H196.491L201.265 121.01H204.477L204.521 132.846H201.419V124.53L201.947 124.882L197.877 131.702H196.425L192.333 124.64L192.971 124.486V132.846H189.869ZM214.892 132.846V130.536L214.672 130.03V125.894C214.672 125.161 214.445 124.589 213.99 124.178C213.55 123.768 212.868 123.562 211.944 123.562C211.313 123.562 210.69 123.665 210.074 123.87C209.473 124.061 208.959 124.325 208.534 124.662L207.302 122.264C207.947 121.81 208.725 121.458 209.634 121.208C210.543 120.959 211.467 120.834 212.406 120.834C214.21 120.834 215.611 121.26 216.608 122.11C217.605 122.961 218.104 124.288 218.104 126.092V132.846H214.892ZM211.284 133.022C210.36 133.022 209.568 132.868 208.908 132.56C208.248 132.238 207.742 131.805 207.39 131.262C207.038 130.72 206.862 130.111 206.862 129.436C206.862 128.732 207.031 128.116 207.368 127.588C207.72 127.06 208.27 126.65 209.018 126.356C209.766 126.048 210.741 125.894 211.944 125.894H215.09V127.896H212.318C211.511 127.896 210.954 128.028 210.646 128.292C210.353 128.556 210.206 128.886 210.206 129.282C210.206 129.722 210.375 130.074 210.712 130.338C211.064 130.588 211.541 130.712 212.142 130.712C212.714 130.712 213.227 130.58 213.682 130.316C214.137 130.038 214.467 129.634 214.672 129.106L215.2 130.69C214.951 131.453 214.496 132.032 213.836 132.428C213.176 132.824 212.325 133.022 211.284 133.022ZM221.085 132.846V121.01H224.495V125.63H229.643V121.01H233.075V132.846H229.643V128.424H224.495V132.846H221.085ZM244.501 131.306V123.826H240.629L240.563 125.344C240.533 125.975 240.497 126.576 240.453 127.148C240.409 127.72 240.321 128.241 240.189 128.71C240.071 129.165 239.895 129.554 239.661 129.876C239.426 130.184 239.111 130.397 238.715 130.514L235.327 130.03C235.752 130.03 236.097 129.906 236.361 129.656C236.625 129.392 236.83 129.033 236.977 128.578C237.123 128.109 237.233 127.581 237.307 126.994C237.38 126.393 237.431 125.762 237.461 125.102L237.615 121.01H247.933V131.306H244.501ZM234.931 135.398V130.03H249.627V135.398H246.437V132.846H238.121V135.398H234.931ZM258.871 132.846V130.536L258.651 130.03V125.894C258.651 125.161 258.423 124.589 257.969 124.178C257.529 123.768 256.847 123.562 255.923 123.562C255.292 123.562 254.669 123.665 254.053 123.87C253.451 124.061 252.938 124.325 252.513 124.662L251.281 122.264C251.926 121.81 252.703 121.458 253.613 121.208C254.522 120.959 255.446 120.834 256.385 120.834C258.189 120.834 259.589 121.26 260.587 122.11C261.584 122.961 262.083 124.288 262.083 126.092V132.846H258.871ZM255.263 133.022C254.339 133.022 253.547 132.868 252.887 132.56C252.227 132.238 251.721 131.805 251.369 131.262C251.017 130.72 250.841 130.111 250.841 129.436C250.841 128.732 251.009 128.116 251.347 127.588C251.699 127.06 252.249 126.65 252.997 126.356C253.745 126.048 254.72 125.894 255.923 125.894H259.069V127.896H256.297C255.49 127.896 254.933 128.028 254.625 128.292C254.331 128.556 254.185 128.886 254.185 129.282C254.185 129.722 254.353 130.074 254.691 130.338C255.043 130.588 255.519 130.712 256.121 130.712C256.693 130.712 257.206 130.58 257.661 130.316C258.115 130.038 258.445 129.634 258.651 129.106L259.179 130.69C258.929 131.453 258.475 132.032 257.815 132.428C257.155 132.824 256.304 133.022 255.263 133.022ZM110.151 159.846V148.01H121.921V159.846H118.489V150.056L119.259 150.826H112.791L113.561 150.056V159.846H110.151ZM132.185 160.022C131.188 160.022 130.315 159.802 129.567 159.362C128.819 158.922 128.233 158.255 127.807 157.36C127.397 156.451 127.191 155.307 127.191 153.928C127.191 152.535 127.389 151.391 127.785 150.496C128.181 149.602 128.753 148.934 129.501 148.494C130.249 148.054 131.144 147.834 132.185 147.834C133.3 147.834 134.297 148.091 135.177 148.604C136.072 149.103 136.776 149.807 137.289 150.716C137.817 151.626 138.081 152.696 138.081 153.928C138.081 155.175 137.817 156.253 137.289 157.162C136.776 158.072 136.072 158.776 135.177 159.274C134.297 159.773 133.3 160.022 132.185 160.022ZM125.189 164.114V148.01H128.467V150.43L128.401 153.95L128.621 157.448V164.114H125.189ZM131.591 157.206C132.163 157.206 132.669 157.074 133.109 156.81C133.564 156.546 133.923 156.172 134.187 155.688C134.466 155.19 134.605 154.603 134.605 153.928C134.605 153.239 134.466 152.652 134.187 152.168C133.923 151.684 133.564 151.31 133.109 151.046C132.669 150.782 132.163 150.65 131.591 150.65C131.019 150.65 130.506 150.782 130.051 151.046C129.597 151.31 129.237 151.684 128.973 152.168C128.709 152.652 128.577 153.239 128.577 153.928C128.577 154.603 128.709 155.19 128.973 155.688C129.237 156.172 129.597 156.546 130.051 156.81C130.506 157.074 131.019 157.206 131.591 157.206ZM146.031 160.022C144.769 160.022 143.647 159.758 142.665 159.23C141.697 158.702 140.927 157.984 140.355 157.074C139.797 156.15 139.519 155.102 139.519 153.928C139.519 152.74 139.797 151.692 140.355 150.782C140.927 149.858 141.697 149.14 142.665 148.626C143.647 148.098 144.769 147.834 146.031 147.834C147.277 147.834 148.392 148.098 149.375 148.626C150.357 149.14 151.127 149.851 151.685 150.76C152.242 151.67 152.521 152.726 152.521 153.928C152.521 155.102 152.242 156.15 151.685 157.074C151.127 157.984 150.357 158.702 149.375 159.23C148.392 159.758 147.277 160.022 146.031 160.022ZM146.031 157.206C146.603 157.206 147.116 157.074 147.571 156.81C148.025 156.546 148.385 156.172 148.649 155.688C148.913 155.19 149.045 154.603 149.045 153.928C149.045 153.239 148.913 152.652 148.649 152.168C148.385 151.684 148.025 151.31 147.571 151.046C147.116 150.782 146.603 150.65 146.031 150.65C145.459 150.65 144.945 150.782 144.491 151.046C144.036 151.31 143.669 151.684 143.391 152.168C143.127 152.652 142.995 153.239 142.995 153.928C142.995 154.603 143.127 155.19 143.391 155.688C143.669 156.172 144.036 156.546 144.491 156.81C144.945 157.074 145.459 157.206 146.031 157.206ZM162.845 160.11C162.816 160.11 162.735 160.11 162.603 160.11C162.471 160.11 162.347 160.11 162.229 160.11C162.112 160.11 162.031 160.11 161.987 160.11C159.421 160.066 157.433 159.516 156.025 158.46C154.617 157.404 153.913 155.879 153.913 153.884C153.913 151.919 154.61 150.423 156.003 149.396C157.411 148.355 159.428 147.827 162.053 147.812C162.083 147.812 162.156 147.812 162.273 147.812C162.405 147.812 162.53 147.812 162.647 147.812C162.765 147.812 162.838 147.812 162.867 147.812C165.522 147.812 167.575 148.326 169.027 149.352C170.494 150.379 171.227 151.89 171.227 153.884C171.227 155.908 170.494 157.456 169.027 158.526C167.575 159.582 165.515 160.11 162.845 160.11ZM162.735 157.47C163.953 157.47 164.943 157.346 165.705 157.096C166.468 156.832 167.025 156.436 167.377 155.908C167.744 155.366 167.927 154.691 167.927 153.884C167.927 153.107 167.751 152.469 167.399 151.97C167.047 151.457 166.483 151.076 165.705 150.826C164.943 150.577 163.953 150.452 162.735 150.452C162.691 150.452 162.603 150.452 162.471 150.452C162.339 150.452 162.251 150.452 162.207 150.452C161.034 150.452 160.081 150.584 159.347 150.848C158.614 151.112 158.079 151.494 157.741 151.992C157.404 152.491 157.235 153.122 157.235 153.884C157.235 154.676 157.404 155.336 157.741 155.864C158.079 156.392 158.614 156.788 159.347 157.052C160.081 157.316 161.034 157.456 162.207 157.47C162.251 157.47 162.339 157.47 162.471 157.47C162.603 157.47 162.691 157.47 162.735 157.47ZM160.997 164.114V143.522H164.143V164.114H160.997ZM179.337 160.022C177.988 160.022 176.8 159.758 175.773 159.23C174.761 158.702 173.976 157.984 173.419 157.074C172.862 156.15 172.583 155.102 172.583 153.928C172.583 152.74 172.854 151.692 173.397 150.782C173.954 149.858 174.71 149.14 175.663 148.626C176.616 148.098 177.694 147.834 178.897 147.834C180.056 147.834 181.097 148.084 182.021 148.582C182.96 149.066 183.7 149.77 184.243 150.694C184.786 151.604 185.057 152.696 185.057 153.972C185.057 154.104 185.05 154.258 185.035 154.434C185.02 154.596 185.006 154.75 184.991 154.896H175.377V152.894H183.187L181.867 153.488C181.867 152.872 181.742 152.337 181.493 151.882C181.244 151.428 180.899 151.076 180.459 150.826C180.019 150.562 179.506 150.43 178.919 150.43C178.332 150.43 177.812 150.562 177.357 150.826C176.917 151.076 176.572 151.435 176.323 151.904C176.074 152.359 175.949 152.902 175.949 153.532V154.06C175.949 154.706 176.088 155.278 176.367 155.776C176.66 156.26 177.064 156.634 177.577 156.898C178.105 157.148 178.721 157.272 179.425 157.272C180.056 157.272 180.606 157.177 181.075 156.986C181.559 156.796 181.999 156.51 182.395 156.128L184.221 158.108C183.678 158.724 182.996 159.201 182.175 159.538C181.354 159.861 180.408 160.022 179.337 160.022ZM193.32 160.022C192.044 160.022 190.907 159.766 189.91 159.252C188.913 158.724 188.128 157.998 187.556 157.074C186.999 156.15 186.72 155.102 186.72 153.928C186.72 152.74 186.999 151.692 187.556 150.782C188.128 149.858 188.913 149.14 189.91 148.626C190.907 148.098 192.044 147.834 193.32 147.834C194.567 147.834 195.652 148.098 196.576 148.626C197.5 149.14 198.182 149.88 198.622 150.848L195.96 152.278C195.652 151.721 195.263 151.31 194.794 151.046C194.339 150.782 193.841 150.65 193.298 150.65C192.711 150.65 192.183 150.782 191.714 151.046C191.245 151.31 190.871 151.684 190.592 152.168C190.328 152.652 190.196 153.239 190.196 153.928C190.196 154.618 190.328 155.204 190.592 155.688C190.871 156.172 191.245 156.546 191.714 156.81C192.183 157.074 192.711 157.206 193.298 157.206C193.841 157.206 194.339 157.082 194.794 156.832C195.263 156.568 195.652 156.15 195.96 155.578L198.622 157.03C198.182 157.984 197.5 158.724 196.576 159.252C195.652 159.766 194.567 160.022 193.32 160.022ZM206.189 160.022C204.913 160.022 203.776 159.766 202.779 159.252C201.782 158.724 200.997 157.998 200.425 157.074C199.868 156.15 199.589 155.102 199.589 153.928C199.589 152.74 199.868 151.692 200.425 150.782C200.997 149.858 201.782 149.14 202.779 148.626C203.776 148.098 204.913 147.834 206.189 147.834C207.436 147.834 208.521 148.098 209.445 148.626C210.369 149.14 211.051 149.88 211.491 150.848L208.829 152.278C208.521 151.721 208.132 151.31 207.663 151.046C207.208 150.782 206.71 150.65 206.167 150.65C205.58 150.65 205.052 150.782 204.583 151.046C204.114 151.31 203.74 151.684 203.461 152.168C203.197 152.652 203.065 153.239 203.065 153.928C203.065 154.618 203.197 155.204 203.461 155.688C203.74 156.172 204.114 156.546 204.583 156.81C205.052 157.074 205.58 157.206 206.167 157.206C206.71 157.206 207.208 157.082 207.663 156.832C208.132 156.568 208.521 156.15 208.829 155.578L211.491 157.03C211.051 157.984 210.369 158.724 209.445 159.252C208.521 159.766 207.436 160.022 206.189 160.022ZM213.577 159.846V148.01H216.987V155.05L222.751 148.01H225.897V159.846H222.487V152.806L216.745 159.846H213.577ZM234.74 160.022C233.478 160.022 232.356 159.758 231.374 159.23C230.406 158.702 229.636 157.984 229.064 157.074C228.506 156.15 228.228 155.102 228.228 153.928C228.228 152.74 228.506 151.692 229.064 150.782C229.636 149.858 230.406 149.14 231.374 148.626C232.356 148.098 233.478 147.834 234.74 147.834C235.986 147.834 237.101 148.098 238.084 148.626C239.066 149.14 239.836 149.851 240.394 150.76C240.951 151.67 241.23 152.726 241.23 153.928C241.23 155.102 240.951 156.15 240.394 157.074C239.836 157.984 239.066 158.702 238.084 159.23C237.101 159.758 235.986 160.022 234.74 160.022ZM234.74 157.206C235.312 157.206 235.825 157.074 236.28 156.81C236.734 156.546 237.094 156.172 237.358 155.688C237.622 155.19 237.754 154.603 237.754 153.928C237.754 153.239 237.622 152.652 237.358 152.168C237.094 151.684 236.734 151.31 236.28 151.046C235.825 150.782 235.312 150.65 234.74 150.65C234.168 150.65 233.654 150.782 233.2 151.046C232.745 151.31 232.378 151.684 232.1 152.168C231.836 152.652 231.704 153.239 231.704 153.928C231.704 154.603 231.836 155.19 232.1 155.688C232.378 156.172 232.745 156.546 233.2 156.81C233.654 157.074 234.168 157.206 234.74 157.206ZM243.59 159.846V148.01H247V152.63H252.148V148.01H255.58V159.846H252.148V155.424H247V159.846H243.59ZM265.95 159.846V157.536L265.73 157.03V152.894C265.73 152.161 265.502 151.589 265.048 151.178C264.608 150.768 263.926 150.562 263.002 150.562C262.371 150.562 261.748 150.665 261.132 150.87C260.53 151.061 260.017 151.325 259.592 151.662L258.36 149.264C259.005 148.81 259.782 148.458 260.692 148.208C261.601 147.959 262.525 147.834 263.464 147.834C265.268 147.834 266.668 148.26 267.666 149.11C268.663 149.961 269.162 151.288 269.162 153.092V159.846H265.95ZM262.342 160.022C261.418 160.022 260.626 159.868 259.966 159.56C259.306 159.238 258.8 158.805 258.448 158.262C258.096 157.72 257.92 157.111 257.92 156.436C257.92 155.732 258.088 155.116 258.426 154.588C258.778 154.06 259.328 153.65 260.076 153.356C260.824 153.048 261.799 152.894 263.002 152.894H266.148V154.896H263.376C262.569 154.896 262.012 155.028 261.704 155.292C261.41 155.556 261.264 155.886 261.264 156.282C261.264 156.722 261.432 157.074 261.77 157.338C262.122 157.588 262.598 157.712 263.2 157.712C263.772 157.712 264.285 157.58 264.74 157.316C265.194 157.038 265.524 156.634 265.73 156.106L266.258 157.69C266.008 158.453 265.554 159.032 264.894 159.428C264.234 159.824 263.383 160.022 262.342 160.022ZM270.647 159.824L270.823 157.008C270.911 157.023 270.999 157.038 271.087 157.052C271.175 157.052 271.256 157.052 271.329 157.052C271.74 157.052 272.062 156.935 272.297 156.7C272.532 156.466 272.708 156.15 272.825 155.754C272.942 155.344 273.023 154.882 273.067 154.368C273.126 153.855 273.17 153.32 273.199 152.762L273.375 148.01H283.495V159.846H280.063V149.99L280.833 150.826H275.641L276.367 149.946L276.213 152.916C276.169 153.972 276.081 154.94 275.949 155.82C275.832 156.7 275.634 157.463 275.355 158.108C275.076 158.739 274.702 159.23 274.233 159.582C273.764 159.92 273.162 160.088 272.429 160.088C272.165 160.088 271.886 160.066 271.593 160.022C271.3 159.978 270.984 159.912 270.647 159.824ZM292.339 160.022C291.078 160.022 289.956 159.758 288.973 159.23C288.005 158.702 287.235 157.984 286.663 157.074C286.106 156.15 285.827 155.102 285.827 153.928C285.827 152.74 286.106 151.692 286.663 150.782C287.235 149.858 288.005 149.14 288.973 148.626C289.956 148.098 291.078 147.834 292.339 147.834C293.586 147.834 294.701 148.098 295.683 148.626C296.666 149.14 297.436 149.851 297.993 150.76C298.551 151.67 298.829 152.726 298.829 153.928C298.829 155.102 298.551 156.15 297.993 157.074C297.436 157.984 296.666 158.702 295.683 159.23C294.701 159.758 293.586 160.022 292.339 160.022ZM292.339 157.206C292.911 157.206 293.425 157.074 293.879 156.81C294.334 156.546 294.693 156.172 294.957 155.688C295.221 155.19 295.353 154.603 295.353 153.928C295.353 153.239 295.221 152.652 294.957 152.168C294.693 151.684 294.334 151.31 293.879 151.046C293.425 150.782 292.911 150.65 292.339 150.65C291.767 150.65 291.254 150.782 290.799 151.046C290.345 151.31 289.978 151.684 289.699 152.168C289.435 152.652 289.303 153.239 289.303 153.928C289.303 154.603 289.435 155.19 289.699 155.688C289.978 156.172 290.345 156.546 290.799 156.81C291.254 157.074 291.767 157.206 292.339 157.206ZM301.19 159.846V148.01H307.24C308.721 148.01 309.88 148.282 310.716 148.824C311.552 149.352 311.97 150.1 311.97 151.068C311.97 152.036 311.574 152.799 310.782 153.356C310.004 153.899 308.97 154.17 307.68 154.17L308.032 153.378C309.469 153.378 310.54 153.642 311.244 154.17C311.962 154.698 312.322 155.468 312.322 156.48C312.322 157.522 311.926 158.343 311.134 158.944C310.342 159.546 309.132 159.846 307.504 159.846H301.19ZM304.336 157.514H307.218C307.848 157.514 308.318 157.412 308.626 157.206C308.948 156.986 309.11 156.656 309.11 156.216C309.11 155.762 308.963 155.432 308.67 155.226C308.376 155.006 307.914 154.896 307.284 154.896H304.336V157.514ZM304.336 152.872H306.932C307.533 152.872 307.98 152.762 308.274 152.542C308.582 152.322 308.736 152.007 308.736 151.596C308.736 151.171 308.582 150.856 308.274 150.65C307.98 150.445 307.533 150.342 306.932 150.342H304.336V152.872ZM121.202 185.306V177.826H117.33L117.264 179.344C117.235 179.975 117.198 180.576 117.154 181.148C117.11 181.72 117.022 182.241 116.89 182.71C116.773 183.165 116.597 183.554 116.362 183.876C116.127 184.184 115.812 184.397 115.416 184.514L112.028 184.03C112.453 184.03 112.798 183.906 113.062 183.656C113.326 183.392 113.531 183.033 113.678 182.578C113.825 182.109 113.935 181.581 114.008 180.994C114.081 180.393 114.133 179.762 114.162 179.102L114.316 175.01H124.634V185.306H121.202ZM111.632 189.398V184.03H126.328V189.398H123.138V186.846H114.822V189.398H111.632ZM126.992 186.824L127.168 184.008C127.256 184.023 127.344 184.038 127.432 184.052C127.52 184.052 127.6 184.052 127.674 184.052C128.084 184.052 128.407 183.935 128.642 183.7C128.876 183.466 129.052 183.15 129.17 182.754C129.287 182.344 129.368 181.882 129.412 181.368C129.47 180.855 129.514 180.32 129.544 179.762L129.72 175.01H139.84V186.846H136.408V176.99L137.178 177.826H131.986L132.712 176.946L132.558 179.916C132.514 180.972 132.426 181.94 132.294 182.82C132.176 183.7 131.978 184.463 131.7 185.108C131.421 185.739 131.047 186.23 130.578 186.582C130.108 186.92 129.507 187.088 128.774 187.088C128.51 187.088 128.231 187.066 127.938 187.022C127.644 186.978 127.329 186.912 126.992 186.824ZM150.598 186.846V182.908L151.082 183.458H147.804C146.103 183.458 144.768 183.106 143.8 182.402C142.832 181.698 142.348 180.686 142.348 179.366C142.348 177.958 142.854 176.88 143.866 176.132C144.893 175.384 146.271 175.01 148.002 175.01H153.656V186.846H150.598ZM142.172 186.846L145.318 182.336H148.816L145.824 186.846H142.172ZM150.598 181.852V176.924L151.082 177.804H148.068C147.364 177.804 146.814 177.936 146.418 178.2C146.037 178.464 145.846 178.89 145.846 179.476C145.846 180.606 146.572 181.17 148.024 181.17H151.082L150.598 181.852ZM171.325 185.306V177.826H167.453L167.387 179.344C167.358 179.975 167.321 180.576 167.277 181.148C167.233 181.72 167.145 182.241 167.013 182.71C166.896 183.165 166.72 183.554 166.485 183.876C166.25 184.184 165.935 184.397 165.539 184.514L162.151 184.03C162.576 184.03 162.921 183.906 163.185 183.656C163.449 183.392 163.654 183.033 163.801 182.578C163.948 182.109 164.058 181.581 164.131 180.994C164.204 180.393 164.256 179.762 164.285 179.102L164.439 175.01H174.757V185.306H171.325ZM161.755 189.398V184.03H176.451V189.398H173.261V186.846H164.945V189.398H161.755ZM184.155 187.022C182.893 187.022 181.771 186.758 180.789 186.23C179.821 185.702 179.051 184.984 178.479 184.074C177.921 183.15 177.643 182.102 177.643 180.928C177.643 179.74 177.921 178.692 178.479 177.782C179.051 176.858 179.821 176.14 180.789 175.626C181.771 175.098 182.893 174.834 184.155 174.834C185.401 174.834 186.516 175.098 187.499 175.626C188.481 176.14 189.251 176.851 189.809 177.76C190.366 178.67 190.645 179.726 190.645 180.928C190.645 182.102 190.366 183.15 189.809 184.074C189.251 184.984 188.481 185.702 187.499 186.23C186.516 186.758 185.401 187.022 184.155 187.022ZM184.155 184.206C184.727 184.206 185.24 184.074 185.695 183.81C186.149 183.546 186.509 183.172 186.773 182.688C187.037 182.19 187.169 181.603 187.169 180.928C187.169 180.239 187.037 179.652 186.773 179.168C186.509 178.684 186.149 178.31 185.695 178.046C185.24 177.782 184.727 177.65 184.155 177.65C183.583 177.65 183.069 177.782 182.615 178.046C182.16 178.31 181.793 178.684 181.515 179.168C181.251 179.652 181.119 180.239 181.119 180.928C181.119 181.603 181.251 182.19 181.515 182.688C181.793 183.172 182.16 183.546 182.615 183.81C183.069 184.074 183.583 184.206 184.155 184.206ZM198.637 187.022C197.361 187.022 196.225 186.766 195.227 186.252C194.23 185.724 193.445 184.998 192.873 184.074C192.316 183.15 192.037 182.102 192.037 180.928C192.037 179.74 192.316 178.692 192.873 177.782C193.445 176.858 194.23 176.14 195.227 175.626C196.225 175.098 197.361 174.834 198.637 174.834C199.884 174.834 200.969 175.098 201.893 175.626C202.817 176.14 203.499 176.88 203.939 177.848L201.277 179.278C200.969 178.721 200.581 178.31 200.111 178.046C199.657 177.782 199.158 177.65 198.615 177.65C198.029 177.65 197.501 177.782 197.031 178.046C196.562 178.31 196.188 178.684 195.909 179.168C195.645 179.652 195.513 180.239 195.513 180.928C195.513 181.618 195.645 182.204 195.909 182.688C196.188 183.172 196.562 183.546 197.031 183.81C197.501 184.074 198.029 184.206 198.615 184.206C199.158 184.206 199.657 184.082 200.111 183.832C200.581 183.568 200.969 183.15 201.277 182.578L203.939 184.03C203.499 184.984 202.817 185.724 201.893 186.252C200.969 186.766 199.884 187.022 198.637 187.022ZM208.533 186.846V177.034L209.303 177.826H204.529V175.01H215.947V177.826H211.173L211.943 177.034V186.846H208.533ZM217.777 186.846V175.01H221.187V182.05L226.951 175.01H230.097V186.846H226.687V179.806L220.945 186.846H217.777ZM247.63 186.846L244.484 181.236L247.256 179.586L251.7 186.846H247.63ZM242.46 182.358V179.608H246.574V182.358H242.46ZM247.608 181.324L244.374 180.972L247.784 175.01H251.414L247.608 181.324ZM235.926 186.846H231.878L236.3 179.586L239.072 181.236L235.926 186.846ZM243.472 186.846H240.084V175.01H243.472V186.846ZM241.096 182.358H237.004V179.608H241.096V182.358ZM235.948 181.324L232.142 175.01H235.772L239.16 180.972L235.948 181.324ZM258.905 187.022C257.555 187.022 256.367 186.758 255.341 186.23C254.329 185.702 253.544 184.984 252.987 184.074C252.429 183.15 252.151 182.102 252.151 180.928C252.151 179.74 252.422 178.692 252.965 177.782C253.522 176.858 254.277 176.14 255.231 175.626C256.184 175.098 257.262 174.834 258.465 174.834C259.623 174.834 260.665 175.084 261.589 175.582C262.527 176.066 263.268 176.77 263.811 177.694C264.353 178.604 264.625 179.696 264.625 180.972C264.625 181.104 264.617 181.258 264.603 181.434C264.588 181.596 264.573 181.75 264.559 181.896H254.945V179.894H262.755L261.435 180.488C261.435 179.872 261.31 179.337 261.061 178.882C260.811 178.428 260.467 178.076 260.027 177.826C259.587 177.562 259.073 177.43 258.487 177.43C257.9 177.43 257.379 177.562 256.925 177.826C256.485 178.076 256.14 178.435 255.891 178.904C255.641 179.359 255.517 179.902 255.517 180.532V181.06C255.517 181.706 255.656 182.278 255.935 182.776C256.228 183.26 256.631 183.634 257.145 183.898C257.673 184.148 258.289 184.272 258.993 184.272C259.623 184.272 260.173 184.177 260.643 183.986C261.127 183.796 261.567 183.51 261.963 183.128L263.789 185.108C263.246 185.724 262.564 186.201 261.743 186.538C260.921 186.861 259.975 187.022 258.905 187.022ZM267.255 186.846V175.01H270.665V179.63H275.813V175.01H279.245V186.846H275.813V182.424H270.665V186.846H267.255ZM282.531 186.846V175.01H285.941V182.05L291.705 175.01H294.851V186.846H291.441V179.806L285.699 186.846H282.531ZM305.608 186.846V182.908L306.092 183.458H302.814C301.112 183.458 299.778 183.106 298.81 182.402C297.842 181.698 297.358 180.686 297.358 179.366C297.358 177.958 297.864 176.88 298.876 176.132C299.902 175.384 301.281 175.01 303.012 175.01H308.666V186.846H305.608ZM297.182 186.846L300.328 182.336H303.826L300.834 186.846H297.182ZM305.608 181.852V176.924L306.092 177.804H303.078C302.374 177.804 301.824 177.936 301.428 178.2C301.046 178.464 300.856 178.89 300.856 179.476C300.856 180.606 301.582 181.17 303.034 181.17H306.092L305.608 181.852ZM119.386 213.824L119.562 211.008C119.65 211.023 119.738 211.038 119.826 211.052C119.914 211.052 119.995 211.052 120.068 211.052C120.479 211.052 120.802 210.935 121.036 210.7C121.271 210.466 121.447 210.15 121.564 209.754C121.682 209.344 121.762 208.882 121.806 208.368C121.865 207.855 121.909 207.32 121.938 206.762L122.114 202.01H132.234V213.846H128.802V203.99L129.572 204.826H124.38L125.106 203.946L124.952 206.916C124.908 207.972 124.82 208.94 124.688 209.82C124.571 210.7 124.373 211.463 124.094 212.108C123.816 212.739 123.442 213.23 122.972 213.582C122.503 213.92 121.902 214.088 121.168 214.088C120.904 214.088 120.626 214.066 120.332 214.022C120.039 213.978 119.724 213.912 119.386 213.824ZM135.535 213.846V202.01H138.945V206.366H142.421V209.336H138.945V213.846H135.535ZM146.733 214.022C145.515 214.022 144.43 213.758 143.477 213.23C142.523 212.702 141.775 211.984 141.233 211.074C140.69 210.15 140.419 209.102 140.419 207.928C140.419 206.74 140.69 205.692 141.233 204.782C141.775 203.858 142.523 203.14 143.477 202.626C144.43 202.098 145.515 201.834 146.733 201.834C147.95 201.834 149.028 202.098 149.967 202.626C150.92 203.14 151.668 203.858 152.211 204.782C152.753 205.692 153.025 206.74 153.025 207.928C153.025 209.102 152.753 210.15 152.211 211.074C151.668 211.998 150.92 212.724 149.967 213.252C149.028 213.766 147.95 214.022 146.733 214.022ZM146.733 211.206C147.29 211.206 147.781 211.074 148.207 210.81C148.647 210.546 148.991 210.172 149.241 209.688C149.505 209.19 149.637 208.603 149.637 207.928C149.637 207.239 149.505 206.652 149.241 206.168C148.991 205.684 148.647 205.31 148.207 205.046C147.781 204.782 147.29 204.65 146.733 204.65C146.19 204.65 145.691 204.782 145.237 205.046C144.797 205.31 144.445 205.684 144.181 206.168C143.931 206.652 143.807 207.239 143.807 207.928C143.807 208.603 143.931 209.19 144.181 209.688C144.445 210.172 144.797 210.546 145.237 210.81C145.691 211.074 146.19 211.206 146.733 211.206ZM161.282 214.11C160.314 214.11 159.434 213.971 158.642 213.692C157.85 213.399 157.16 212.952 156.574 212.35C156.002 211.734 155.554 210.95 155.232 209.996C154.924 209.043 154.77 207.906 154.77 206.586C154.77 205.648 154.85 204.79 155.012 204.012C155.173 203.235 155.415 202.531 155.738 201.9C156.06 201.255 156.471 200.69 156.97 200.206C157.483 199.708 158.077 199.297 158.752 198.974C159.441 198.637 160.218 198.38 161.084 198.204L166.716 197.082L167.178 200.03L162.206 201.02C161.912 201.079 161.575 201.16 161.194 201.262C160.827 201.35 160.453 201.49 160.072 201.68C159.705 201.871 159.36 202.142 159.038 202.494C158.73 202.832 158.48 203.279 158.29 203.836C158.099 204.379 158.004 205.054 158.004 205.86C158.004 206.11 158.011 206.3 158.026 206.432C158.055 206.564 158.077 206.704 158.092 206.85C158.121 206.997 158.136 207.224 158.136 207.532L157.036 206.454C157.358 205.765 157.769 205.178 158.268 204.694C158.781 204.21 159.368 203.844 160.028 203.594C160.702 203.33 161.45 203.198 162.272 203.198C163.386 203.198 164.362 203.426 165.198 203.88C166.048 204.32 166.708 204.944 167.178 205.75C167.647 206.557 167.882 207.474 167.882 208.5C167.882 209.615 167.603 210.598 167.046 211.448C166.488 212.284 165.711 212.937 164.714 213.406C163.731 213.876 162.587 214.11 161.282 214.11ZM161.458 211.448C162.03 211.448 162.536 211.324 162.976 211.074C163.416 210.81 163.753 210.466 163.988 210.04C164.237 209.6 164.362 209.109 164.362 208.566C164.362 208.038 164.237 207.569 163.988 207.158C163.753 206.748 163.416 206.425 162.976 206.19C162.536 205.956 162.022 205.838 161.436 205.838C160.864 205.838 160.35 205.956 159.896 206.19C159.441 206.41 159.089 206.718 158.84 207.114C158.59 207.51 158.466 207.972 158.466 208.5C158.466 209.043 158.59 209.542 158.84 209.996C159.104 210.436 159.456 210.788 159.896 211.052C160.35 211.316 160.871 211.448 161.458 211.448ZM182.398 213.846V202.01H185.808V213.846H182.398ZM176.436 205.794C177.991 205.809 179.157 206.161 179.934 206.85C180.726 207.525 181.122 208.486 181.122 209.732C181.122 211.038 180.675 212.057 179.78 212.79C178.886 213.509 177.617 213.868 175.974 213.868L170.21 213.846V202.01H173.62V205.794H176.436ZM175.666 211.426C176.326 211.441 176.832 211.302 177.184 211.008C177.536 210.715 177.712 210.275 177.712 209.688C177.712 209.102 177.536 208.684 177.184 208.434C176.832 208.17 176.326 208.031 175.666 208.016L173.62 207.994V211.426H175.666ZM187.533 213.846L192.835 206.894L192.769 208.786L187.687 202.01H191.537L194.749 206.432L193.297 206.476L196.619 202.01H200.271L195.167 208.72V206.872L200.447 213.846H196.553L193.187 209.138L194.617 209.336L191.273 213.846H187.533ZM208.367 213.846V202.01H211.777V211.03H216.551V202.01H219.983V213.846H208.367ZM218.509 216.398V213.802L219.301 213.846H216.551V211.03H221.699V216.398H218.509ZM229.643 214.022C228.293 214.022 227.105 213.758 226.079 213.23C225.067 212.702 224.282 211.984 223.725 211.074C223.167 210.15 222.889 209.102 222.889 207.928C222.889 206.74 223.16 205.692 223.703 204.782C224.26 203.858 225.015 203.14 225.969 202.626C226.922 202.098 228 201.834 229.203 201.834C230.361 201.834 231.403 202.084 232.327 202.582C233.265 203.066 234.006 203.77 234.549 204.694C235.091 205.604 235.363 206.696 235.363 207.972C235.363 208.104 235.355 208.258 235.341 208.434C235.326 208.596 235.311 208.75 235.297 208.896H225.683V206.894H233.493L232.173 207.488C232.173 206.872 232.048 206.337 231.799 205.882C231.549 205.428 231.205 205.076 230.765 204.826C230.325 204.562 229.811 204.43 229.225 204.43C228.638 204.43 228.117 204.562 227.663 204.826C227.223 205.076 226.878 205.435 226.629 205.904C226.379 206.359 226.255 206.902 226.255 207.532V208.06C226.255 208.706 226.394 209.278 226.673 209.776C226.966 210.26 227.369 210.634 227.883 210.898C228.411 211.148 229.027 211.272 229.731 211.272C230.361 211.272 230.911 211.177 231.381 210.986C231.865 210.796 232.305 210.51 232.701 210.128L234.527 212.108C233.984 212.724 233.302 213.201 232.481 213.538C231.659 213.861 230.713 214.022 229.643 214.022ZM236.39 213.824L236.566 211.008C236.654 211.023 236.742 211.038 236.83 211.052C236.918 211.052 236.999 211.052 237.072 211.052C237.483 211.052 237.805 210.935 238.04 210.7C238.275 210.466 238.451 210.15 238.568 209.754C238.685 209.344 238.766 208.882 238.81 208.368C238.869 207.855 238.913 207.32 238.942 206.762L239.118 202.01H249.238V213.846H245.806V203.99L246.576 204.826H241.384L242.11 203.946L241.956 206.916C241.912 207.972 241.824 208.94 241.692 209.82C241.575 210.7 241.377 211.463 241.098 212.108C240.819 212.739 240.445 213.23 239.976 213.582C239.507 213.92 238.905 214.088 238.172 214.088C237.908 214.088 237.629 214.066 237.336 214.022C237.043 213.978 236.727 213.912 236.39 213.824ZM258.324 214.022C256.975 214.022 255.787 213.758 254.76 213.23C253.748 212.702 252.964 211.984 252.406 211.074C251.849 210.15 251.57 209.102 251.57 207.928C251.57 206.74 251.842 205.692 252.384 204.782C252.942 203.858 253.697 203.14 254.65 202.626C255.604 202.098 256.682 201.834 257.884 201.834C259.043 201.834 260.084 202.084 261.008 202.582C261.947 203.066 262.688 203.77 263.23 204.694C263.773 205.604 264.044 206.696 264.044 207.972C264.044 208.104 264.037 208.258 264.022 208.434C264.008 208.596 263.993 208.75 263.978 208.896H254.364V206.894H262.174L260.854 207.488C260.854 206.872 260.73 206.337 260.48 205.882C260.231 205.428 259.886 205.076 259.446 204.826C259.006 204.562 258.493 204.43 257.906 204.43C257.32 204.43 256.799 204.562 256.344 204.826C255.904 205.076 255.56 205.435 255.31 205.904C255.061 206.359 254.936 206.902 254.936 207.532V208.06C254.936 208.706 255.076 209.278 255.354 209.776C255.648 210.26 256.051 210.634 256.564 210.898C257.092 211.148 257.708 211.272 258.412 211.272C259.043 211.272 259.593 211.177 260.062 210.986C260.546 210.796 260.986 210.51 261.382 210.128L263.208 212.108C262.666 212.724 261.984 213.201 261.162 213.538C260.341 213.861 259.395 214.022 258.324 214.022ZM266.675 213.846V202.01H270.085V209.05L275.849 202.01H278.995V213.846H275.585V206.806L269.843 213.846H266.675ZM272.615 200.734C271.325 200.734 270.357 200.456 269.711 199.898C269.066 199.326 268.736 198.468 268.721 197.324H270.965C270.98 197.823 271.119 198.219 271.383 198.512C271.647 198.806 272.051 198.952 272.593 198.952C273.121 198.952 273.525 198.806 273.803 198.512C274.097 198.219 274.243 197.823 274.243 197.324H276.531C276.531 198.468 276.201 199.326 275.541 199.898C274.881 200.456 273.906 200.734 272.615 200.734ZM288.525 213.846V202.01H291.935V209.05L297.699 202.01H300.845V213.846H297.435V206.806L291.693 213.846H288.525ZM182.378 241.066C183.493 241.066 184.49 240.92 185.37 240.626C186.265 240.318 186.969 239.886 187.482 239.328C188.01 238.756 188.274 238.089 188.274 237.326C188.274 236.432 187.9 235.728 187.152 235.214C186.404 234.686 185.378 234.422 184.072 234.422L183.984 235.104C184.732 235.104 185.407 234.98 186.008 234.73C186.61 234.466 187.079 234.107 187.416 233.652C187.768 233.198 187.944 232.684 187.944 232.112C187.944 231.394 187.688 230.785 187.174 230.286C186.676 229.788 185.986 229.406 185.106 229.142C184.226 228.878 183.236 228.761 182.136 228.79C181.388 228.805 180.633 228.908 179.87 229.098C179.108 229.289 178.338 229.546 177.56 229.868L178.396 232.244C179.056 231.98 179.702 231.782 180.332 231.65C180.963 231.504 181.572 231.43 182.158 231.43C182.672 231.43 183.097 231.482 183.434 231.584C183.772 231.672 184.028 231.804 184.204 231.98C184.38 232.156 184.468 232.369 184.468 232.618C184.468 232.853 184.395 233.058 184.248 233.234C184.116 233.396 183.911 233.52 183.632 233.608C183.354 233.696 183.016 233.74 182.62 233.74H180.486V235.874H182.906C183.522 235.874 183.992 235.977 184.314 236.182C184.637 236.373 184.798 236.659 184.798 237.04C184.798 237.334 184.696 237.583 184.49 237.788C184.285 237.994 183.984 238.155 183.588 238.272C183.207 238.375 182.752 238.426 182.224 238.426C181.491 238.426 180.765 238.353 180.046 238.206C179.342 238.045 178.69 237.818 178.088 237.524L177.164 239.922C177.927 240.304 178.756 240.59 179.65 240.78C180.56 240.971 181.469 241.066 182.378 241.066ZM197.812 240.846V238.536L197.592 238.03V233.894C197.592 233.161 197.365 232.589 196.91 232.178C196.47 231.768 195.788 231.562 194.864 231.562C194.233 231.562 193.61 231.665 192.994 231.87C192.393 232.061 191.879 232.325 191.454 232.662L190.222 230.264C190.867 229.81 191.645 229.458 192.554 229.208C193.463 228.959 194.387 228.834 195.326 228.834C197.13 228.834 198.531 229.26 199.528 230.11C200.525 230.961 201.024 232.288 201.024 234.092V240.846H197.812ZM194.204 241.022C193.28 241.022 192.488 240.868 191.828 240.56C191.168 240.238 190.662 239.805 190.31 239.262C189.958 238.72 189.782 238.111 189.782 237.436C189.782 236.732 189.951 236.116 190.288 235.588C190.64 235.06 191.19 234.65 191.938 234.356C192.686 234.048 193.661 233.894 194.864 233.894H198.01V235.896H195.238C194.431 235.896 193.874 236.028 193.566 236.292C193.273 236.556 193.126 236.886 193.126 237.282C193.126 237.722 193.295 238.074 193.632 238.338C193.984 238.588 194.461 238.712 195.062 238.712C195.634 238.712 196.147 238.58 196.602 238.316C197.057 238.038 197.387 237.634 197.592 237.106L198.12 238.69C197.871 239.453 197.416 240.032 196.756 240.428C196.096 240.824 195.245 241.022 194.204 241.022ZM212.145 239.306V231.826H208.273L208.207 233.344C208.178 233.975 208.141 234.576 208.097 235.148C208.053 235.72 207.965 236.241 207.833 236.71C207.716 237.165 207.54 237.554 207.305 237.876C207.071 238.184 206.755 238.397 206.359 238.514L202.971 238.03C203.397 238.03 203.741 237.906 204.005 237.656C204.269 237.392 204.475 237.033 204.621 236.578C204.768 236.109 204.878 235.581 204.951 234.994C205.025 234.393 205.076 233.762 205.105 233.102L205.259 229.01H215.577V239.306H212.145ZM202.575 243.398V238.03H217.271V243.398H214.081V240.846H205.765V243.398H202.575ZM226.515 240.846V238.536L226.295 238.03V233.894C226.295 233.161 226.068 232.589 225.613 232.178C225.173 231.768 224.491 231.562 223.567 231.562C222.936 231.562 222.313 231.665 221.697 231.87C221.096 232.061 220.582 232.325 220.157 232.662L218.925 230.264C219.57 229.81 220.348 229.458 221.257 229.208C222.166 228.959 223.09 228.834 224.029 228.834C225.833 228.834 227.234 229.26 228.231 230.11C229.228 230.961 229.727 232.288 229.727 234.092V240.846H226.515ZM222.907 241.022C221.983 241.022 221.191 240.868 220.531 240.56C219.871 240.238 219.365 239.805 219.013 239.262C218.661 238.72 218.485 238.111 218.485 237.436C218.485 236.732 218.654 236.116 218.991 235.588C219.343 235.06 219.893 234.65 220.641 234.356C221.389 234.048 222.364 233.894 223.567 233.894H226.713V235.896H223.941C223.134 235.896 222.577 236.028 222.269 236.292C221.976 236.556 221.829 236.886 221.829 237.282C221.829 237.722 221.998 238.074 222.335 238.338C222.687 238.588 223.164 238.712 223.765 238.712C224.337 238.712 224.85 238.58 225.305 238.316C225.76 238.038 226.09 237.634 226.295 237.106L226.823 238.69C226.574 239.453 226.119 240.032 225.459 240.428C224.799 240.824 223.948 241.022 222.907 241.022ZM240.166 236.314C239.682 236.578 239.147 236.791 238.56 236.952C237.974 237.114 237.328 237.194 236.624 237.194C235.07 237.194 233.874 236.842 233.038 236.138C232.202 235.42 231.784 234.283 231.784 232.728V229.01H235.216V232.508C235.216 233.242 235.407 233.77 235.788 234.092C236.17 234.4 236.705 234.554 237.394 234.554C237.893 234.554 238.37 234.496 238.824 234.378C239.294 234.261 239.741 234.092 240.166 233.872V236.314ZM239.924 240.846V229.01H243.356V240.846H239.924Z" fill="white"/>
</svg>
